#!OML:ASF F:\VICON\USERDATA\INSTALL\rory3\rory3.ASF
:FULLY-SPECIFIED
:DEGREES
54
root -6.210513377128544 17.888256930758338 0.9633249055956767 -22.464311390819603 82.39074621020971 -42.56285844562343
lfemur -24.419798379181575 26.273129906676793 -0.779642510762808
ltibia 33.46218225813186
lfoot -2.5257305970834256 2.2137740626051414
ltoes 3.5864307550753844
rfemur -39.670545626743255 1.3120849108900954 18.357889940558312
rtibia 30.17374794276719
rfoot -5.731333311952969 15.09921680387138
rtoes 9.949766627374183
lowerback 5.956156337379907 -9.716604940169395 -7.456259617492261
upperback 5.281013172636262 -13.242577713786968 2.037093312087216
thorax 4.40381314283429 -6.980283427609184 6.408168969881804
lowerneck -10.293285146711046 17.8599532245948 2.9796861082207413
upperneck 18.292107239461497 27.3539153504191 -12.969549674685283
head 10.051209096850403 11.596769202978637 -1.4220501365199052
lclavicle -5.0083386257981915e-15 -1.0221864703812218e-14
lhumerus 74.66222824185594 -38.60586407596293 67.29852513332236
lradius 32.10247130834546
lwrist 6.607460697912645
lhand -15.7219600631801 5.395723869770396
lfingers 7.125020000000001
lthumb -172.71398609976504 244.683203067517
rclavicle -5.002050154941071e-15 -1.0197607322203902e-14
rhumerus 26.30218736373051 -16.31862740228181 -69.15673033254996
rradius 92.61189838744457
rwrist -22.249764129075505
rhand -67.26437651446201 20.17359812873838
rfingers 7.125020000000001
rthumb -40.70166792467521 -2.5077679161379507
55
root -6.178811114973423 17.92679455852318 0.6340908408815726 -126.58951673011006 83.82758271158441 -145.85353935878436
lfemur -27.562173036133835 23.873173943491174 -2.488956004840287
ltibia 32.60736976387892
lfoot -2.565775682543558 -1.602280596082375
ltoes 3.914413683110905
rfemur -38.09323486358658 -1.155957452285373 16.090443939375103
rtibia 30.950998904914904
rfoot -6.158677599187642 12.403702669690185
rtoes 1.7821278203849502
lowerback 4.500063317332176 -9.835771814976143 -5.047504709172721
upperback 6.037455973313241 -13.05550120635959 3.2612669296161556
thorax 5.470478274218032 -6.863746676814937 6.024350764669824
lowerneck -11.14149351467785 15.717510223539334 4.070515123359154
upperneck 19.45883463045989 24.726185766448936 -13.368591020227193
head 10.714396567997866 10.459308189382599 -1.90485295349472
lclavicle -5.0165900077820045e-15 -1.0257728879324816e-14
lhumerus 69.52177436459931 -38.40140601487643 69.45745052826585
lradius 31.125715388627306
lwrist 4.789510833923188
lhand -15.57814474457865 7.8039904850882245
lfingers 7.125020000000001
lthumb -172.09674691094602 235.6829189072643
rclavicle -4.999328809076849e-15 -1.0195179528847874e-14
rhumerus 22.614501923230392 -15.311324252746878 -71.0556019282926
rradius 90.19089303595975
rwrist -25.47045145613029
rhand -67.2791245913773 20.103113797962674
rfingers 7.125020000000001
rthumb -40.5855448690408 -2.9504800296207367
56
root -6.155915258028406 17.98983428948227 0.3555308568753028 -155.21624423460503 76.94153208378606 -173.2385904910073
lfemur -29.94872917987648 20.996441853820322 -4.273103932549634
ltibia 30.985111328029703
lfoot -2.189634745386093 -6.269099146822169
ltoes 5.42473792062257
rfemur -34.791593384695084 -3.416854129412717 13.914334908258532
rtibia 31.931340530516973
rfoot -6.566831685155917 9.703795306718314
rtoes -7.127953875422271
lowerback 2.565123381388537 -10.010532158379343 -2.8479080270309587
upperback 6.433363530203977 -13.083402202112772 4.9815335378274135
thorax 6.770921191641064 -6.808093333508332 6.235763598460291
lowerneck -11.916195278270084 12.823548820852702 4.20237675277229
upperneck 20.907789157867636 21.435592880727626 -13.594846622438318
head 11.34467054422964 8.900299198679749 -2.359103558997673
lclavicle -5.0183613036242656e-15 -1.0218700709838681e-14
lhumerus 63.421600195101036 -37.47927453945021 72.78894073559596
lradius 30.196762679354848
lwrist 2.8334806397210492
lhand -14.965012512648665 11.408525712179433
lfingers 7.125020000000001
lthumb -170.9969624171215 224.83844245420465
rclavicle -5.0050358104956e-15 -1.0200638143584774e-14
rhumerus 18.235454336879194 -13.464369089231052 -72.80968815802468
rradius 86.84633094748911
rwrist -30.034048433164337
rhand -66.5101244811974 21.654377630517544
rfingers 7.125020000000001
rthumb -40.065346268436286 -1.5133793886411269
57
root -6.101538080266278 18.055570803239846 0.0909411536121994 -162.79427583305065 69.67358113292796 -179.29923139904173
lfemur -30.60630637013371 17.706290869863288 -6.21417115728097
ltibia 28.329775673054453
lfoot -1.5292930212485016 -10.867019393994804
ltoes 7.006845288227945
rfemur -31.104122434047717 -4.702660524104896 11.704278904771362
rtibia 33.00599903872412
rfoot -6.970021593695189 7.159366559031012
rtoes -14.903865595319257
lowerback 0.4100943052103907 -9.88744166751899 -1.1697628452298192
upperback 6.520093044691702 -12.957067370940795 6.887702268228443
thorax 8.192155437802338 -6.652318791942289 6.693955684621812
lowerneck -12.334695462331979 9.277117774574512 3.6480277306924282
upperneck 22.34523569353579 17.598785111145364 -13.875577082824762
head 11.782579929592131 7.103547491915608 -2.8916751093494213
lclavicle -5.019686069411504e-15 -1.0151661573859389e-14
lhumerus 58.91323681048485 -36.37478907868462 74.00285857731863
lradius 29.384108076001453
lwrist 1.0660161701970523
lhand -13.520886981157181 15.39529189423451
lfingers 7.125020000000001
lthumb -169.13678416180522 212.81272003480854
rclavicle -5.005609437244133e-15 -1.02010423370919e-14
rhumerus 14.626565213087563 -10.306110707402578 -74.52294756247585
rradius 82.33615317318768
rwrist -35.72293931902226
rhand -65.23385357345025 18.521343142611933
rfingers 7.125020000000001
rthumb -39.190216984920866 -5.2782227333421705
58
root -6.053005301172261 18.102287435169735 -0.1920587481769533 -169.86370269017075 62.343671441526226 -184.38006475996463
lfemur -29.225016706067542 14.374279806118802 -8.454303482761137
ltibia 24.534538869282464
lfoot -0.43288996667756585 -15.648450566774535
ltoes 9.841077921001409
rfemur -27.140928564776353 -5.513809789954402 9.474292190881071
rtibia 34.20800981072441
rfoot -8.457269463100271 4.808509099587317
rtoes -15.06775788140757
lowerback -1.804577230032479 -9.422226331251808 0.14162797693216614
upperback 6.519963138269144 -12.37762643646371 8.684082036748531
thorax 9.660372187471229 -6.287942445781733 7.588203615258762
lowerneck -12.197937667768652 5.664991975535409 2.394199722445844
upperneck 23.653333483595503 13.413901188015075 -14.165636756573726
head 12.106482801352026 5.3078079627912125 -3.4293559133568126
lclavicle -5.011216775535946e-15 -1.0154098000521784e-14
lhumerus 53.88470238828223 -34.93368158030721 76.45446611142137
lradius 28.56461369771353
lwrist -0.11241844462395889
lhand -11.091260676767423 20.637904808958492
lfingers 7.125020000000001
lthumb -166.56163460047128 202.9979260530556
rclavicle -5.006004768628625e-15 -1.0200785346910552e-14
rhumerus 12.182697505403919 -5.935755535311591 -76.13035253403295
rradius 76.9197698789848
rwrist -43.385633730736146
rhand -62.456134005031004 13.378463159452496
rfingers 7.125020000000001
rthumb -37.32943317864102 -11.599042023342225
59
root -6.006175069580676 18.12217396529684 -0.4355608973520644 -174.08182694682807 55.9145539422754 -186.2817086397663
lfemur -26.660220019707452 11.576227011215025 -10.732035127238301
ltibia 20.09078130355511
lfoot 1.4836476620708057 -20.079456976174527
ltoes 14.33333729034562
rfemur -23.013807304270017 -5.9265136033874555 7.254883924439145
rtibia 35.47518066896994
rfoot -8.519656102708012 2.634926295135431
rtoes -6.626704609817601
lowerback -4.094060095606522 -8.406861402033256 1.0513318865694352
upperback 6.4577442562556495 -11.270724574440681 10.061800000338799
thorax 10.969937337947641 -5.719835509714105 8.472215972133338
lowerneck -11.636576637333498 1.8436377475842616 1.1382852666828143
upperneck 24.835873586748015 8.86328876954651 -14.383037129759508
head 12.299015389347405 3.291224308831633 -4.0421957469671295
lclavicle -5.017714201661955e-15 -1.0174335770040334e-14
lhumerus 50.68339416122815 -34.802139072859944 76.70425080842674
lradius 28.152012326330734
lwrist 1.201500554618523
lhand -7.88923668477304 27.219922774835528
lfingers 7.125020000000001
lthumb -163.34875894660613 187.21169179517682
rclavicle -5.004166121841354e-15 -1.0198817589761125e-14
rhumerus 10.826131554709448 -1.902825902047577 -78.08335397724333
rradius 69.8808355125876
rwrist -52.16974315352896
rhand -57.220379649292575 5.187184391954011
rfingers 7.125020000000001
rthumb -33.97349190762344 -20.172732073906804
60
root -5.930866269130737 18.14147711599532 -0.6141230906017721 -176.00114276556872 52.959763910084924 -185.56142520259183
lfemur -23.625026978107982 9.382570140639112 -12.890341809501725
ltibia 16.04577995351089
lfoot 3.164188109882034 -24.107029043384134
ltoes 17.479315113304658
rfemur -18.835203658993567 -5.023625453592803 5.208411499139787
rtibia 36.33504529426308
rfoot -7.910581866441382 0.8487398217857507
rtoes -4.160522088129781
lowerback -6.2664241702381265 -6.890140904247469 1.700700937628594
upperback 5.985989445466293 -9.375775337282303 11.048160365445131
thorax 11.366339921622142 -4.7601404683507145 9.222971846984684
lowerneck -10.527939650691552 -1.7546153090120102 0.07950775367489304
upperneck 25.827916169800048 4.015528312469561 -14.214794549646601
head 12.112949489530326 1.1081242280070236 -4.543685994363936
lclavicle -5.021924242205709e-15 -1.0257932636569673e-14
lhumerus 48.367446821586796 -37.3661589018424 74.25394977045312
lradius 28.30515768110454
lwrist 9.432083250949876
lhand -4.780912657427152 34.24159889755582
lfingers 7.125020000000001
lthumb -159.00309959056054 164.75613074679154
rclavicle -4.999187730082824e-15 -1.0195001858147157e-14
rhumerus 10.591590226414606 1.4671865930563115 -80.49958825856787
rradius 62.865098576621676
rwrist -59.952005693584105
rhand -49.773451944000456 -1.9387993349008887
rfingers 7.125020000000001
rthumb -27.982473171881978 -28.774567482323157
